<svg width="22" height="27" viewBox="0 0 22 27" fill="none" xmlns="http://www.w3.org/2000/svg">
<path fill-rule="evenodd" clip-rule="evenodd" d="M3 18.666V11.333C3 7.24 4.50996 3.813 8.32996 2.906V0H13.67V2.907C17.48 3.814 19 7.227 19 11.334V18.667L21.67 20V22.667H0.329956V20L3 18.666ZM11 26.666C10.2928 26.6647 9.61485 26.3834 9.1145 25.8836C8.61415 25.3838 8.33207 24.7062 8.32996 23.999H13.67C13.6679 24.7062 13.3858 25.3838 12.8855 25.8836C12.3851 26.3834 11.7072 26.6647 11 26.666ZM16.33 19.999H5.67004V11.333C5.67004 8.026 7 5 11 5C15 5 16.33 8.027 16.33 11.333V19.999Z" fill="#010101"/>
</svg>
