<svg width="12" height="16" viewBox="0 0 12 16" fill="none" xmlns="http://www.w3.org/2000/svg">
<path d="M5.84613 0.999998C4.59243 0.970179 3.37811 1.43892 2.4696 2.30337C1.5611 3.16782 1.03262 4.35736 1.00013 5.611C1.00013 8.539 4.23113 13.179 5.41713 14.781C5.46642 14.8486 5.53096 14.9035 5.60551 14.9414C5.68006 14.9793 5.76251 14.9991 5.84613 14.9991C5.92976 14.9991 6.01221 14.9793 6.08676 14.9414C6.16131 14.9035 6.22585 14.8486 6.27514 14.781C7.46114 13.181 10.6921 8.541 10.6921 5.611C10.6596 4.35736 10.1312 3.16782 9.22267 2.30337C8.31416 1.43892 7.09983 0.970179 5.84613 0.999998V0.999998Z" stroke="black" stroke-linecap="round" stroke-linejoin="round"/>
<path d="M5.84613 7.46099C6.73807 7.46099 7.46113 6.73793 7.46113 5.84599C7.46113 4.95405 6.73807 4.23099 5.84613 4.23099C4.95419 4.23099 4.23113 4.95405 4.23113 5.84599C4.23113 6.73793 4.95419 7.46099 5.84613 7.46099Z" stroke="black" stroke-linecap="round" stroke-linejoin="round"/>
</svg>
