<svg width="800" height="661" viewBox="0 0 800 661" fill="none" xmlns="http://www.w3.org/2000/svg">
<path opacity="0.18" d="M800 623.827C794.681 624.87 791.28 620.958 787.792 618.436C727.427 576.95 677.135 522.525 640.597 459.149C636.237 451.497 634.842 446.107 642.167 438.803C701.708 379.986 752.851 313.281 794.158 240.564C795.895 237.889 797.849 235.359 800 233L800 623.827Z" fill="white"/>
<path opacity="0.18" d="M533.566 -8.36783e-06C591.656 -5.82866e-06 649.949 -3.2806e-06 708.445 -7.23661e-07C713.934 -4.83709e-07 719.423 0.608822 725 1.04373C707.165 64.4673 682.355 125.727 651.023 183.704C595.093 289.012 512.738 378.025 412.014 442.036C410.908 443.128 409.568 443.954 408.095 444.454C406.622 444.953 405.055 445.113 403.511 444.921C401.968 444.728 400.488 444.188 399.184 443.342C397.88 442.496 396.785 441.365 395.982 440.036C355.551 397.154 327.494 346.531 302.487 293.821C298.13 285.122 304.229 282.688 309.457 279.121C359.681 245.351 404.909 204.711 443.818 158.392C482.991 111.383 513.39 57.7345 533.566 -8.36783e-06Z" fill="white"/>
<path opacity="0.18" d="M-1.35942e-05 661L-1.24514e-05 634.854C-9.33514e-06 563.563 -6.22276e-06 492.36 -3.10653e-06 421.069C-2.67605e-06 411.221 3.06918 407.734 12.5399 405.468C68.7736 392.581 123.696 374.58 176.612 351.695C184.767 348.121 187.837 350.3 191.432 357.273C218.384 410.861 251.236 461.311 289.384 507.698C294.821 514.235 293.944 517.634 287.981 523.299C226.596 581.953 152.321 616.727 72.6967 642.089C48.8999 649.943 24.6171 656.26 -1.35942e-05 661Z" fill="white"/>
<path opacity="0.18" d="M19.3489 -5.05527e-06L91.8518 0.785687C96.9346 74.6989 110.972 147.725 133.657 218.269C136.281 226.473 135.581 230.226 126.835 233.542C89.1309 247.832 50.3535 259.125 10.8654 267.316C3.25655 268.975 0.0205419 268.101 0.0205423 259.2C0.0205457 181.352 0.0205491 103.535 0.0205525 25.7456C-0.214814 19.891 1.57878 14.1341 5.09929 9.44478C8.6198 4.75543 13.6522 1.41998 19.3489 -5.05527e-06Z" fill="white"/>
<path opacity="0.18" d="M214 -7.38722e-06C270.333 -4.92481e-06 326.667 0.204038 383 0.611993C355.492 61.4377 313.982 114.806 261.901 156.305C256.511 160.676 253.207 162.599 250.425 153.857C235.289 103.335 223.126 51.9603 214 -7.38722e-06Z" fill="white"/>
</svg>
