<svg width="15" height="16" viewBox="0 0 15 16" fill="none" xmlns="http://www.w3.org/2000/svg">
<path d="M14.062 11.471C13.3119 10.8277 12.4874 10.2768 11.606 9.83C10.788 9.418 10.721 9.384 10.078 9.862C9.649 10.181 9.364 10.462 8.862 10.362C7.89369 10.0169 7.02087 9.44733 6.315 8.7C5.55661 7.98526 4.97464 7.1041 4.615 6.126C4.508 5.626 4.797 5.344 5.115 4.915C5.56 4.309 5.526 4.208 5.146 3.391C4.70798 2.50521 4.15449 1.68137 3.5 0.941003C2.922 0.370003 2.922 0.471004 2.549 0.626004C2.24581 0.753496 1.95493 0.908473 1.68 1.089C1.22968 1.34346 0.865488 1.72645 0.634 2.189C0.425 2.636 0.334001 3.682 1.41 5.643C2.28417 7.32999 3.43323 8.85958 4.81 10.169C6.13968 11.5238 7.66868 12.6674 9.344 13.56C11.523 14.781 12.359 14.543 12.807 14.334C13.2691 14.1033 13.6521 13.7402 13.907 13.291C14.088 13.0165 14.2433 12.726 14.371 12.423C14.534 12.049 14.634 12.049 14.062 11.471Z" stroke="black" stroke-miterlimit="10"/>
</svg>
