<svg width="61" height="61" viewBox="0 0 61 61" fill="none" xmlns="http://www.w3.org/2000/svg">
<path d="M31 0H30C13.4315 0 0 13.4315 0 30V31C0 47.5685 13.4315 61 30 61H31C47.5685 61 61 47.5685 61 31V30C61 13.4315 47.5685 0 31 0Z" fill="#EFEFEF"/>
<path d="M38.052 22.3669H22.334C21.2294 22.3669 20.334 23.2624 20.334 24.3669V37.0519C20.334 38.1565 21.2294 39.0519 22.334 39.0519H38.052C39.1566 39.0519 40.052 38.1565 40.052 37.0519V24.3669C40.052 23.2624 39.1566 22.3669 38.052 22.3669Z" stroke="#C5C5C5" stroke-linejoin="round"/>
<path d="M33.985 28.4349C34.8228 28.4349 35.502 27.7557 35.502 26.9179C35.502 26.0801 34.8228 25.4009 33.985 25.4009C33.1472 25.4009 32.468 26.0801 32.468 26.9179C32.468 27.7557 33.1472 28.4349 33.985 28.4349Z" stroke="#C5C5C5" stroke-miterlimit="10"/>
<path d="M32.47 34.4928L28.17 30.2028C27.8965 29.9293 27.5289 29.7705 27.1423 29.759C26.7557 29.7475 26.3792 29.884 26.09 30.1408L20.334 35.2608" stroke="#C5C5C5" stroke-linecap="round" stroke-linejoin="round"/>
<path d="M28.677 39.0539L34.524 33.2069C34.7914 32.9388 35.1493 32.7804 35.5275 32.7629C35.9058 32.7453 36.2769 32.8698 36.568 33.1119L40.055 36.0199" stroke="#C5C5C5" stroke-linecap="round" stroke-linejoin="round"/>
</svg>
