<svg width="94" height="94" viewBox="0 0 94 94" fill="none" xmlns="http://www.w3.org/2000/svg">
<path d="M74 0H20C8.9543 0 0 8.9543 0 20V74C0 85.0457 8.9543 94 20 94H74C85.0457 94 94 85.0457 94 74V20C94 8.9543 85.0457 0 74 0Z" fill="#28C66F" fill-opacity="0.15"/>
<path fill-rule="evenodd" clip-rule="evenodd" d="M47 38C47 39.78 46.4722 41.5201 45.4833 43.0001C44.4943 44.4802 43.0886 45.6337 41.4441 46.3149C39.7995 46.9961 37.9899 47.1743 36.2441 46.8271C34.4983 46.4798 32.8946 45.6226 31.636 44.364C30.3773 43.1053 29.5202 41.5016 29.173 39.7558C28.8257 38.01 29.0039 36.2004 29.685 34.5558C30.3662 32.9113 31.5198 31.5057 32.9999 30.5168C34.4799 29.5278 36.2199 29 38 29C40.3869 29 42.6762 29.9482 44.364 31.636C46.0518 33.3239 47 35.6131 47 38ZM42.5 38C42.5 38.89 42.236 39.76 41.7416 40.5001C41.2471 41.2401 40.5443 41.8169 39.722 42.1575C38.8998 42.498 37.995 42.5872 37.1221 42.4135C36.2491 42.2399 35.4473 41.8113 34.818 41.182C34.1886 40.5526 33.76 39.7508 33.5864 38.8779C33.4128 38.005 33.5019 37.1002 33.8425 36.2779C34.1831 35.4557 34.7598 34.7529 35.4999 34.2584C36.2399 33.7639 37.11 33.5 38 33.5C39.1935 33.5 40.3381 33.9741 41.182 34.818C42.0259 35.6619 42.5 36.8065 42.5 38Z" fill="#28C66F"/>
<path d="M58.25 38H62.75V44.75H69.5V49.25H62.75V56H58.25V49.25H51.5V44.75H58.25V38Z" fill="#28C66F"/>
<path d="M47 62.75H51.5C51.5 59.1696 50.0776 55.7358 47.5459 53.2041C45.0142 50.6723 41.5804 49.25 38 49.25C34.4196 49.25 30.9858 50.6723 28.4541 53.2041C25.9224 55.7358 24.5 59.1696 24.5 62.75H29C29 60.3631 29.9482 58.0739 31.636 56.386C33.3238 54.6982 35.6131 53.75 38 53.75C40.3869 53.75 42.6762 54.6982 44.364 56.386C46.0518 58.0739 47 60.3631 47 62.75Z" fill="#28C66F"/>
</svg>
