<svg width="14" height="12" viewBox="0 0 14 12" fill="none" xmlns="http://www.w3.org/2000/svg">
<path fill-rule="evenodd" clip-rule="evenodd" d="M6.74743 0.0341868C6.90566 -0.0113956 7.07301 -0.0113956 7.23125 0.0341868C7.56856 0.12991 7.90847 0.21847 8.24969 0.307681C9.85224 0.725086 11.4795 1.14965 12.9278 2.32894L13.5946 2.87202C13.8648 3.09212 14.0002 3.41901 14.0002 3.7446V8.30284C14.0002 8.43237 13.9488 8.55659 13.8572 8.64818C13.7656 8.73977 13.6414 8.79123 13.5119 8.79123C13.3823 8.79123 13.2581 8.73977 13.1665 8.64818C13.0749 8.55659 13.0235 8.43237 13.0235 8.30284V5.08407L12.9173 5.17068C12.4378 5.55991 11.9136 5.89066 11.3558 6.15591C11.3819 6.21517 11.3955 6.28028 11.3955 6.34931V9.14547C11.3955 9.50601 11.2867 9.85816 11.0832 10.1558C10.8798 10.4535 10.5912 10.6828 10.2553 10.8138L7.65061 11.8296C7.23226 11.9927 6.7679 11.9927 6.34956 11.8296L3.74484 10.8138C3.40893 10.6828 3.12038 10.4535 2.91694 10.1558C2.7135 9.85816 2.60465 9.50601 2.60463 9.14547V6.34931C2.60463 6.27898 2.61961 6.21191 2.64631 6.15135C2.10583 5.89153 1.57837 5.5718 1.07241 5.16026L0.405602 4.61718C-0.134875 4.17633 -0.134875 3.31287 0.405602 2.87202L1.08283 2.31852C2.51998 1.1464 4.1362 0.723784 5.72638 0.308333C6.06771 0.220668 6.40808 0.129281 6.74743 0.0341868ZM13.0235 3.74525C13.0235 3.68664 13 3.64757 12.9779 3.62934L12.3111 3.08626C10.9071 2.11665 9.65559 1.68883 8.06801 1.27142C7.70765 1.17803 7.34819 1.08121 6.98966 0.980999C6.61849 1.08584 6.25774 1.18091 5.9074 1.27338C4.33155 1.68753 2.95822 2.04893 1.7008 3.07584L1.02227 3.62869C1.00013 3.64692 0.976685 3.68534 0.976685 3.74395C0.976685 3.80255 1.00013 3.84162 1.02227 3.85986L1.68973 4.40294C2.95822 5.43636 4.34393 5.80037 5.93215 6.21777C6.28183 6.30894 6.64063 6.40401 7.0105 6.5082C7.38167 6.40336 7.74242 6.30829 8.09276 6.21582C9.66861 5.80167 11.0419 5.44027 12.2994 4.41336L12.9772 3.86051C13 3.84228 13.0235 3.80386 13.0235 3.74525ZM8.27379 7.18086C8.99008 6.99398 9.71094 6.80513 10.4188 6.54792V9.14547C10.4188 9.48082 10.213 9.78167 9.90043 9.90409L7.29572 10.9193C7.10559 10.9934 6.89457 10.9934 6.70445 10.9193L4.09973 9.90344C3.94709 9.84394 3.81596 9.73976 3.72348 9.60452C3.631 9.46929 3.58148 9.3093 3.5814 9.14547V6.54206C4.29704 6.80253 5.02636 6.99267 5.74982 7.18152C6.09169 7.27073 6.4316 7.35929 6.76891 7.45501C6.92715 7.50059 7.0945 7.50059 7.25274 7.45501C7.5907 7.35864 7.93127 7.27008 8.27379 7.18086Z" fill="black"/>
</svg>
