<svg width="18" height="19" viewBox="0 0 18 19" fill="none" xmlns="http://www.w3.org/2000/svg">
<path d="M12.4522 4.92666C12.4962 5.42547 12.4359 5.92797 12.2752 6.40223C12.1145 6.87648 11.8569 7.31211 11.5188 7.68142C11.1806 8.05073 10.7693 8.34563 10.311 8.54738C9.8527 8.74914 9.35743 8.85333 8.85669 8.85333C8.35594 8.85333 7.86067 8.74914 7.40237 8.54738C6.94408 8.34563 6.53278 8.05073 6.19462 7.68142C5.85646 7.31211 5.59883 6.87648 5.43813 6.40223C5.27743 5.92797 5.21715 5.42547 5.26115 4.92666C5.21715 4.42786 5.27743 3.92536 5.43813 3.4511C5.59883 2.97685 5.85646 2.54122 6.19462 2.17191C6.53278 1.80261 6.94408 1.5077 7.40237 1.30594C7.86067 1.10419 8.35594 1 8.85669 1C9.35743 1 9.8527 1.10419 10.311 1.30594C10.7693 1.5077 11.1806 1.80261 11.5188 2.17191C11.8569 2.54122 12.1145 2.97685 12.2752 3.4511C12.4359 3.92536 12.4962 4.42786 12.4522 4.92666V4.92666Z" stroke="#1E1E1E" stroke-width="1.5" stroke-linecap="round" stroke-linejoin="round"/>
<path d="M8.85608 11.4634C5.30122 11.4634 1.69295 13.4241 1.02641 17.1259C0.997717 17.2263 0.99232 17.3319 1.01063 17.4347C1.02894 17.5375 1.07047 17.6347 1.13206 17.7191C1.19365 17.8034 1.27368 17.8725 1.36604 17.9212C1.4584 17.9699 1.56066 17.9969 1.66502 18H16.0471C16.1516 17.997 16.254 17.9702 16.3465 17.9216C16.439 17.873 16.5192 17.8039 16.5809 17.7195C16.6427 17.6352 16.6843 17.5379 16.7027 17.435C16.7211 17.3321 16.7157 17.2264 16.687 17.1259C16.0192 13.4241 12.4109 11.4634 8.85608 11.4634Z" stroke="#1E1E1E" stroke-width="1.5" stroke-miterlimit="10"/>
</svg>
