<svg width="24" height="24" viewBox="0 0 24 24" fill="none" xmlns="http://www.w3.org/2000/svg">
<path d="M7 16.25H14V18.25H7V16.25ZM7 12.25H17V14.25H7V12.25ZM7 8.24997H17V10.25H7V8.24997ZM19 4.24997H14.82C14.6152 3.66541 14.2339 3.15891 13.7287 2.80057C13.2235 2.44223 12.6194 2.24976 12 2.24976C11.3806 2.24976 10.7765 2.44223 10.2713 2.80057C9.76612 3.15891 9.38476 3.66541 9.18 4.24997H5C4.86557 4.24791 4.73136 4.26131 4.6 4.28995C4.282 4.35796 3.98509 4.50165 3.73442 4.7088C3.48375 4.91595 3.28671 5.18046 3.16 5.47995C3.0543 5.72289 2.99983 5.98503 3 6.24997V20.25C3.00189 20.5179 3.05625 20.7829 3.16 21.0299C3.26306 21.268 3.40879 21.4853 3.59 21.671C3.86588 21.9488 4.21693 22.14 4.6 22.221C4.73235 22.2414 4.86609 22.2514 5 22.2509H19C19.5299 22.2494 20.0377 22.0382 20.4125 21.6634C20.7872 21.2887 20.9984 20.7809 21 20.2509V6.25098C20.9987 5.72086 20.7876 5.21281 20.4128 4.83786C20.0381 4.46291 19.5301 4.25155 19 4.24997ZM12 3.99997C12.1483 3.99997 12.2933 4.04396 12.4167 4.12637C12.54 4.20878 12.6361 4.32591 12.6929 4.46295C12.7497 4.6 12.7645 4.75078 12.7356 4.89627C12.7066 5.04176 12.6352 5.17541 12.5303 5.2803C12.4254 5.38519 12.2918 5.45663 12.1463 5.48557C12.0008 5.5145 11.85 5.49964 11.713 5.44287C11.5759 5.38611 11.4588 5.28996 11.3764 5.16663C11.294 5.04329 11.25 4.89831 11.25 4.74997C11.2513 4.55146 11.3307 4.36144 11.4711 4.22107C11.6115 4.0807 11.8015 4.00128 12 3.99997ZM19 20.25H5V6.24997H19V20.25Z" fill="#1E1E1E"/>
</svg>
