<svg width="14" height="14" viewBox="0 0 14 14" fill="none" xmlns="http://www.w3.org/2000/svg">
<path d="M12.6672 5.33298C12.8441 5.33298 13.0136 5.26273 13.1387 5.13771C13.2637 5.01268 13.3339 4.8431 13.3339 4.66628V2.6662C13.3339 2.52631 13.2899 2.38997 13.208 2.27652C13.1262 2.16308 13.0107 2.07828 12.8779 2.03417L6.87767 0.0340901C6.74089 -0.0113634 6.59309 -0.0113634 6.45632 0.0340901L0.456068 2.03417C0.323312 2.07828 0.207816 2.16308 0.125962 2.27652C0.0441089 2.38997 5.49087e-05 2.52631 4.95911e-05 2.6662V4.66628C4.95911e-05 4.8431 0.0702904 5.01268 0.19532 5.13771C0.320349 5.26273 0.489926 5.33298 0.666744 5.33298H1.33344V10.1225C0.944547 10.2595 0.607594 10.5135 0.368849 10.8496C0.130104 11.1858 0.00127399 11.5876 4.95911e-05 11.9999V13.3333C4.95911e-05 13.5101 0.0702904 13.6797 0.19532 13.8047C0.320349 13.9298 0.489926 14 0.666744 14H12.6672C12.8441 14 13.0136 13.9298 13.1387 13.8047C13.2637 13.6797 13.3339 13.5101 13.3339 13.3333V11.9999C13.3327 11.5876 13.2039 11.1858 12.9651 10.8496C12.7264 10.5135 12.3894 10.2595 12.0005 10.1225V5.33298H12.6672ZM12.0005 12.6666H1.33344V11.9999C1.33361 11.8232 1.40391 11.6537 1.5289 11.5287C1.65389 11.4037 1.82337 11.3334 2.00013 11.3332H11.3339C11.5106 11.3334 11.6801 11.4037 11.8051 11.5287C11.9301 11.6537 12.0004 11.8232 12.0005 11.9999V12.6666ZM2.66683 9.99984V5.33298H4.00022V9.99984H2.66683ZM5.3336 9.99984V5.33298H8.00038V9.99984H5.3336ZM9.33377 9.99984V5.33298H10.6672V9.99984H9.33377ZM1.33344 3.99959V3.14622L6.66699 1.36881L12.0005 3.14689V3.99959H1.33344Z" fill="black"/>
</svg>
